<svg width="23" height="15" viewBox="0 0 23 15" fill="none" xmlns="http://www.w3.org/2000/svg">
<path d="M11.4668 0C6.4668 0 2.1968 3.11 0.466797 7.5C2.1968 11.89 6.4668 15 11.4668 15C16.4668 15 20.7368 11.89 22.4668 7.5C20.7368 3.11 16.4668 0 11.4668 0ZM11.4668 12.5C8.7068 12.5 6.4668 10.26 6.4668 7.5C6.4668 4.74 8.7068 2.5 11.4668 2.5C14.2268 2.5 16.4668 4.74 16.4668 7.5C16.4668 10.26 14.2268 12.5 11.4668 12.5ZM11.4668 4.5C9.8068 4.5 8.4668 5.84 8.4668 7.5C8.4668 9.16 9.8068 10.5 11.4668 10.5C13.1268 10.5 14.4668 9.16 14.4668 7.5C14.4668 5.84 13.1268 4.5 11.4668 4.5Z" fill="black" fill-opacity="0.38"/>
</svg>
