<svg width="32" height="32" viewBox="0 0 32 32" fill="none" xmlns="http://www.w3.org/2000/svg">
<path d="M32 15.9876C32 7.15236 24.8476 0 16.0124 0C7.17711 0 0 7.15236 0 15.9876C0 23.9814 5.86543 30.5893 13.5128 31.802V20.6156H9.42923V15.9876H13.5128V12.4733C13.5128 8.46404 15.8886 6.23666 19.5514 6.23666C21.3086 6.23666 23.1152 6.58314 23.1152 6.58314V10.4934H21.1106C19.1307 10.4934 18.4872 11.7309 18.4872 12.993V15.9876H22.942L22.2243 20.6156H18.4872V31.802C26.1346 30.6141 32 23.9814 32 15.9876Z" fill="#1877F2"/>
<path d="M22.2243 20.6157L22.942 15.9877H18.4873V12.9931C18.4873 11.7309 19.1307 10.4935 21.1106 10.4935H23.1153V6.58318C23.1153 6.58318 21.3086 6.23669 19.5515 6.23669C15.8887 6.23669 13.5128 8.46407 13.5128 12.4734V15.9877H9.42926V20.6157H13.5128V31.8021C14.3295 31.9258 15.1462 32 16.0124 32C16.8539 32 17.6953 31.9258 18.512 31.8021V20.6157H22.2243Z" fill="white"/>
</svg>
