<svg width="125" height="32" viewBox="0 0 125 32" fill="none" xmlns="http://www.w3.org/2000/svg">
<path d="M18.2603 3.47588V6.45189L13.4243 11.2259L8.65027 6.45189V3.47588L13.4243 8.24988L18.2603 3.47588Z" fill="white"/>
<path d="M26.4443 8.62195L17.5163 17.55L20.1203 20.1539L18.6323 21.642L14.5403 17.55L26.4443 5.70795V8.62195Z" fill="white"/>
<path d="M12.3088 17.55L8.2788 21.642L6.7908 20.1539L9.39479 17.55L0.466797 8.62195V5.70795L12.3088 17.55Z" fill="white"/>
<path d="M26.4448 0.5V3.47599L13.4248 16.434L0.466797 3.47599V0.5L13.4248 13.458L26.4448 0.5Z" fill="white"/>
<path d="M17.517 22.7579L16.029 24.2459L13.425 21.6419L10.821 24.2459L9.39502 22.7579L13.425 18.6659L17.517 22.7579Z" fill="white"/>
<path d="M21.9806 12.7139V20.5259L13.4246 29.0199L4.93061 20.5259V12.7139L2.69861 9.73795V21.2699L13.4246 31.9959L24.2126 21.2699V9.73795L21.9806 12.7139Z" fill="white"/>
<path d="M13.5 23.8512L12.0094 25.3418L13.5 26.8323L14.9905 25.3418L13.5 23.8512Z" fill="white"/>
<path d="M42.2554 20.1541C41.2014 20.1541 40.2714 19.9681 39.4654 19.6581C38.6594 19.3481 37.9774 18.8521 37.4814 18.2321C36.9234 17.6121 36.5514 16.9301 36.3034 16.0621C36.0554 15.2561 35.8694 14.3261 35.8694 13.3341V12.8381C35.8694 11.9081 36.0554 11.1021 36.3654 10.2961C36.6754 9.5521 37.1094 8.87011 37.6674 8.31211C38.2254 7.75411 38.9074 7.3201 39.7134 7.0101C40.5194 6.7001 41.3254 6.5761 42.2554 6.5761C43.1854 6.5761 44.0534 6.7001 44.7974 7.0101C45.6034 7.3201 46.2234 7.75411 46.7814 8.31211C47.3394 8.87011 47.7734 9.4901 48.0834 10.2961C48.3934 11.0401 48.5794 11.9081 48.5794 12.8381V13.3341C48.5794 14.3261 48.4554 15.2561 48.2074 16.0621C47.9594 16.8681 47.5254 17.6121 47.0294 18.2321C46.4714 18.8521 45.8514 19.2861 45.0454 19.6581C44.2394 19.9681 43.3094 20.1541 42.2554 20.1541ZM42.2554 8.5601C40.8914 8.5601 39.8374 8.9321 39.1554 9.7381C38.4734 10.5441 38.1014 11.5981 38.1014 12.9001V13.3341C38.1014 14.0161 38.1634 14.6981 38.2874 15.2561C38.4114 15.8761 38.6594 16.3721 38.9694 16.8061C39.2794 17.2401 39.7134 17.5501 40.2714 17.7981C40.7674 18.0461 41.4494 18.1701 42.2554 18.1701C43.0614 18.1701 43.7434 18.0461 44.2394 17.7981C44.7974 17.5501 45.2314 17.2401 45.5414 16.8061C45.8514 16.3721 46.0994 15.8761 46.2234 15.2561C46.3474 14.6361 46.4094 14.0161 46.4094 13.2721V12.8381C46.4094 11.5361 46.0374 10.4821 45.3554 9.6761C44.6734 8.9321 43.6194 8.5601 42.2554 8.5601Z" fill="white"/>
<path d="M58.6851 19.906V8.74597H52.6091V19.906H50.5011V6.76198H60.8551V19.906H58.6851Z" fill="white"/>
<path d="M68.5431 8.80804V19.968H66.4351V8.80804H62.2811V6.82404H72.9451L72.3251 8.80804H68.5431Z" fill="white"/>
<path d="M82.8657 19.906V10.11L76.3557 19.906H74.2477V6.76198H76.3557V16.496L82.8037 6.76198H84.9117V19.906H82.8657Z" fill="white"/>
<path d="M87.2676 19.906V6.76198H90.1196L93.7776 15.938L97.4356 6.76198H100.226V19.906H98.1176V9.98597L94.7696 18.356H92.7236L89.3756 9.79997V19.906H87.2676Z" fill="white"/>
<path d="M106.983 16.1241C106.673 16.0001 106.425 15.8142 106.177 15.6282C105.929 15.3802 105.805 15.1321 105.619 14.8841L101.961 7.19615L104.007 6.63815L107.355 13.5822C107.417 13.7062 107.541 13.8302 107.603 13.8922C107.665 13.9542 107.789 13.9541 107.975 13.9541L111.261 6.63815L113.245 7.19615L108.223 18.4182C108.099 18.6662 108.037 18.9142 107.913 19.1002C107.789 19.3482 107.665 19.5342 107.479 19.7202C107.293 19.9062 107.045 20.0301 106.797 20.1541C106.549 20.2781 106.177 20.3402 105.805 20.3402C105.619 20.3402 105.371 20.3402 105.123 20.2782C104.875 20.2162 104.689 20.1541 104.503 20.1541V18.4182H105.123C105.433 18.4182 105.681 18.3561 105.867 18.2941C106.053 18.2321 106.239 18.0461 106.363 17.7361L106.983 16.1241Z" fill="white"/>
<path d="M116.345 13.396C116.345 14.14 116.407 14.822 116.531 15.38C116.655 16 116.841 16.496 117.089 16.868C117.399 17.302 117.771 17.612 118.267 17.798C118.763 18.046 119.445 18.108 120.251 18.108C120.809 18.108 121.367 18.0461 121.801 17.9221C122.235 17.7981 122.669 17.488 123.041 17.054L124.467 18.356C123.909 18.976 123.289 19.41 122.545 19.658C121.801 19.906 121.057 20.03 120.251 20.03C119.135 20.03 118.205 19.844 117.461 19.534C116.717 19.224 116.035 18.728 115.539 18.17C115.043 17.612 114.671 16.8681 114.423 16.0621C114.175 15.2561 114.051 14.326 114.051 13.334V12.6521C114.051 11.7221 114.175 10.854 114.485 10.048C114.733 9.30405 115.167 8.62204 115.663 8.12604C116.159 7.56804 116.841 7.19605 117.585 6.94805C118.329 6.70005 119.197 6.51404 120.189 6.51404C120.933 6.51404 121.677 6.63804 122.421 6.88604C123.165 7.13404 123.785 7.56804 124.343 8.12604L122.917 9.55205C122.483 9.18005 122.111 8.87004 121.677 8.74604C121.243 8.62204 120.747 8.49805 120.189 8.49805C118.825 8.49805 117.833 8.87005 117.213 9.55205C116.593 10.2341 116.283 11.2881 116.283 12.6521V13.396H116.345Z" fill="white"/>
<path d="M37.8528 28.7092C37.4808 28.5232 37.2328 28.2752 37.0468 27.9032C36.8608 27.5932 36.7368 27.1592 36.7368 26.7872C36.7368 26.3532 36.8608 25.9812 37.0468 25.6712C37.2328 25.3612 37.5428 25.0512 37.8528 24.8652C38.1628 24.6792 38.5968 24.5552 39.0308 24.5552C39.4648 24.5552 39.8368 24.6792 40.2088 24.8652C40.5808 25.0512 40.8288 25.2992 41.0148 25.6712C41.2008 26.0432 41.3248 26.4152 41.3248 26.8492C41.3248 27.2832 41.2008 27.6552 41.0148 28.0272C40.8288 28.3992 40.5188 28.6472 40.2088 28.8332C39.8368 29.0192 39.4648 29.1432 39.0308 29.1432C38.6588 29.0192 38.2248 28.9572 37.8528 28.7092ZM40.0228 28.3992C40.3328 28.2132 40.5188 28.0272 40.7048 27.7172C40.8908 27.4072 40.9528 27.0972 40.9528 26.7872C40.9528 26.4152 40.8908 26.1052 40.7048 25.8572C40.5188 25.5472 40.3328 25.3612 40.0228 25.1752C39.7128 24.9892 39.4028 24.9272 39.0928 24.9272C38.7208 24.9272 38.4108 24.9892 38.1628 25.1752C37.8528 25.3612 37.6668 25.5472 37.4808 25.8572C37.2948 26.1052 37.2328 26.4772 37.2328 26.7872C37.2328 27.1592 37.2948 27.4692 37.4808 27.7172C37.6668 27.9652 37.8528 28.2132 38.1628 28.3992C38.4728 28.5852 38.7828 28.6472 39.0928 28.6472C39.4028 28.5852 39.7128 28.5232 40.0228 28.3992Z" fill="white"/>
<path d="M44.3633 28.7721C43.9913 28.5861 43.7433 28.3381 43.5573 27.9661C43.3713 27.5941 43.2473 27.2221 43.2473 26.7881C43.2473 26.3541 43.3713 25.9821 43.5573 25.6101C43.7433 25.2381 44.0533 24.9901 44.3633 24.8041C44.7353 24.6181 45.1073 24.4941 45.5413 24.4941C45.8513 24.4941 46.1613 24.5561 46.4713 24.6801C46.7193 24.8041 46.9673 24.9281 47.1533 25.1761L46.8433 25.4861C46.4713 25.1141 46.0373 24.9901 45.5413 24.9901C45.1693 24.9901 44.8593 25.0521 44.6113 25.2381C44.3633 25.4241 44.1153 25.6101 43.9293 25.9201C43.7433 26.1681 43.6813 26.4781 43.6813 26.8501C43.6813 27.2221 43.7433 27.5321 43.9293 27.7801C44.1153 28.0281 44.3013 28.2761 44.6113 28.4621C44.9213 28.6481 45.2313 28.7101 45.5413 28.7101C46.0993 28.7101 46.5333 28.5241 46.8433 28.1521L47.1533 28.4621C46.9673 28.6481 46.7193 28.8341 46.4713 28.9581C46.2233 29.0821 45.9133 29.1441 45.5413 29.1441C45.1073 29.0201 44.6733 28.9581 44.3633 28.7721Z" fill="white"/>
<path d="M51.9278 27.8422H49.4478L48.8898 29.0202H48.3938L50.3778 24.6182H50.8118L52.7958 29.0202H52.2998L51.9278 27.8422ZM51.7418 27.4702L50.6878 25.1142L49.6338 27.4702H51.7418Z" fill="white"/>
<path d="M57.6938 24.9902H55.3378V29.0202H54.9038V24.6182H57.6938V24.9902Z" fill="white"/>
<path d="M59.7398 28.7102C59.3678 28.5242 59.1198 28.2762 58.9338 27.9042C58.7478 27.5942 58.6238 27.1602 58.6238 26.7882C58.6238 26.3542 58.7478 25.9822 58.9338 25.6722C59.1198 25.3622 59.4298 25.0522 59.7398 24.8662C60.1118 24.6802 60.4838 24.5562 60.9178 24.5562C61.3518 24.5562 61.7238 24.6802 62.0958 24.8662C62.4678 25.0522 62.7158 25.3002 62.9018 25.6722C63.0878 26.0442 63.2118 26.4162 63.2118 26.8502C63.2118 27.2842 63.0878 27.6562 62.9018 28.0282C62.7158 28.4002 62.4058 28.6482 62.0958 28.8342C61.7238 29.0202 61.3518 29.1442 60.9178 29.1442C60.4838 29.1442 60.0498 28.9582 59.7398 28.7102ZM61.8478 28.4002C62.1578 28.2142 62.3438 28.0282 62.5298 27.7182C62.7158 27.4082 62.7778 27.0982 62.7778 26.7882C62.7778 26.4162 62.7158 26.1062 62.5298 25.8582C62.3438 25.5482 62.1578 25.3622 61.8478 25.1762C61.5378 24.9902 61.2278 24.9282 60.9178 24.9282C60.6078 24.9282 60.2358 24.9902 59.9878 25.1762C59.6778 25.3622 59.4918 25.5482 59.3058 25.8582C59.1198 26.1062 59.0578 26.4782 59.0578 26.7882C59.0578 27.1602 59.1198 27.4702 59.3058 27.7182C59.4918 27.9662 59.6778 28.2142 59.9878 28.4002C60.2978 28.5862 60.6078 28.6482 60.9178 28.6482C61.2278 28.6482 61.5378 28.5242 61.8478 28.4002Z" fill="white"/>
<path d="M68.1708 24.6182H71.3948V24.9902H68.6048V26.4162H70.0308C70.5268 26.4162 70.9608 26.5402 71.2088 26.7262C71.4568 26.9122 71.6428 27.2222 71.6428 27.6562C71.6428 28.0902 71.5188 28.4002 71.2088 28.6482C70.8988 28.8962 70.5268 28.9582 69.9688 28.9582H68.1708V24.6182ZM69.9688 28.6482C70.4028 28.6482 70.7128 28.5862 70.8988 28.4002C71.0848 28.2142 71.2088 28.0282 71.2088 27.7182C71.2088 27.4082 71.0848 27.1602 70.8988 27.0362C70.7128 26.9122 70.4028 26.7882 69.9688 26.7882H68.6048V28.5862H69.9688V28.6482Z" fill="white"/>
<path d="M76.9755 28.5862V28.9582H73.8755V24.5562H76.9135V24.9282H74.3715V26.4782H76.6655V26.8502H74.3715V28.4622H76.9755V28.5862Z" fill="white"/>
<path d="M81.6873 27.0981C81.8733 27.2841 81.9353 27.5321 81.9353 27.7801C81.9353 28.0281 81.8733 28.2761 81.6873 28.4621C81.5013 28.6481 81.3153 28.7721 81.0673 28.8961C80.8193 29.0201 80.5093 29.0201 80.1993 29.0201C79.8893 29.0201 79.6413 28.9581 79.3313 28.8961C79.0213 28.7721 78.7733 28.6481 78.5873 28.4621L78.7733 28.1521C78.9593 28.3381 79.2073 28.4621 79.4553 28.5241C79.7033 28.5861 79.9513 28.6481 80.1993 28.6481C80.4473 28.6481 80.6333 28.5861 80.8813 28.5241C81.0673 28.4621 81.2533 28.3381 81.3773 28.2141C81.5013 28.0901 81.5633 27.9041 81.5633 27.7181C81.5633 27.4701 81.4393 27.2841 81.2533 27.0981C81.0673 26.9741 80.7573 26.9121 80.3853 26.9121H79.4553V26.5401H80.3853C80.6953 26.5401 80.9433 26.4781 81.1293 26.3541C81.3153 26.2301 81.3773 26.0441 81.3773 25.7961C81.3773 25.5481 81.2533 25.3621 81.0673 25.1761C80.8193 25.0521 80.5713 24.9281 80.2613 24.9281C80.0753 24.9281 79.8273 24.9281 79.6413 24.9901C79.4553 25.0521 79.2073 25.1141 79.0213 25.2381L78.8353 24.8661C79.2693 24.6181 79.7653 24.4941 80.2613 24.4941C80.5713 24.4941 80.8193 24.5561 81.0673 24.6181C81.3153 24.7421 81.5013 24.8661 81.6253 25.0521C81.7493 25.2381 81.8113 25.4241 81.8113 25.6721C81.8113 25.9201 81.7493 26.1061 81.6253 26.2921C81.5013 26.4781 81.3153 26.6021 81.0673 26.6641C81.3153 26.7881 81.5013 26.9121 81.6873 27.0981Z" fill="white"/>
<path d="M87.7016 28.7102C87.3296 28.5242 87.0816 28.2762 86.8956 27.9042C86.7096 27.5942 86.5856 27.1602 86.5856 26.7882C86.5856 26.3542 86.7096 25.9822 86.8956 25.6722C87.0816 25.3622 87.3916 25.0522 87.7016 24.8662C88.0736 24.6802 88.4456 24.5562 88.8796 24.5562C89.3136 24.5562 89.6856 24.6802 90.0576 24.8662C90.4296 25.0522 90.6776 25.3002 90.8636 25.6722C91.0496 26.0442 91.1736 26.4162 91.1736 26.8502C91.1736 27.2842 91.0496 27.6562 90.8636 28.0282C90.6776 28.4002 90.3676 28.6482 90.0576 28.8342C89.6856 29.0202 89.3136 29.1442 88.8796 29.1442C88.4456 29.1442 88.0736 28.9582 87.7016 28.7102ZM89.8096 28.4002C90.1196 28.2142 90.3056 28.0282 90.4916 27.7182C90.6776 27.4082 90.7396 27.0982 90.7396 26.7882C90.7396 26.4162 90.6776 26.1062 90.4916 25.8582C90.3056 25.5482 90.1196 25.3622 89.8096 25.1762C89.4996 24.9902 89.1896 24.9282 88.8796 24.9282C88.5076 24.9282 88.1976 24.9902 87.9496 25.1762C87.6396 25.3622 87.4536 25.5482 87.2676 25.8582C87.0816 26.1062 87.0196 26.4782 87.0196 26.7882C87.0196 27.1602 87.0816 27.4702 87.2676 27.7182C87.4536 27.9662 87.6396 28.2142 87.9496 28.4002C88.2596 28.5862 88.5696 28.6482 88.8796 28.6482C89.2516 28.5862 89.5616 28.5242 89.8096 28.4002Z" fill="white"/>
<path d="M96.1958 24.9902H94.7078V29.0202H94.2738V24.9902H92.7238V24.6182H96.2578V24.9902H96.1958Z" fill="white"/>
<path d="M99.6051 26.9742H98.6131V29.0202H98.1791V24.6182H98.6131V26.6022H99.6051L101.093 24.6182H101.589L99.9771 26.7882L101.713 29.0822H101.155L99.6051 26.9742Z" fill="white"/>
<path d="M106.301 27.8422H103.821L103.263 29.0202H102.767L104.751 24.6182H105.185L107.169 29.0202H106.673L106.301 27.8422ZM106.115 27.4702L105.061 25.1142L104.007 27.4702H106.115Z" fill="white"/>
<path d="M111.819 27.0981C112.005 27.2841 112.067 27.5321 112.067 27.7801C112.067 28.0281 112.005 28.2761 111.819 28.4621C111.633 28.6481 111.447 28.7721 111.199 28.8961C110.951 29.0201 110.641 29.0201 110.331 29.0201C110.021 29.0201 109.773 28.9581 109.463 28.8961C109.153 28.7721 108.905 28.6481 108.719 28.4621L108.905 28.1521C109.091 28.3381 109.339 28.4621 109.587 28.5241C109.835 28.5861 110.083 28.6481 110.331 28.6481C110.579 28.6481 110.765 28.5861 111.013 28.5241C111.199 28.4621 111.385 28.3381 111.509 28.2141C111.633 28.0901 111.695 27.9041 111.695 27.7181C111.695 27.4701 111.571 27.2841 111.385 27.0981C111.199 26.9741 110.889 26.9121 110.517 26.9121H109.587V26.5401H110.517C110.827 26.5401 111.075 26.4781 111.261 26.3541C111.447 26.2301 111.509 26.0441 111.509 25.7961C111.509 25.5481 111.385 25.3621 111.199 25.1761C110.951 25.0521 110.703 24.9281 110.331 24.9281C110.145 24.9281 109.897 24.9281 109.711 24.9901C109.525 25.0521 109.277 25.1141 109.091 25.2381L108.905 24.8661C109.339 24.6181 109.835 24.4941 110.331 24.4941C110.641 24.4941 110.889 24.5561 111.137 24.6181C111.385 24.7421 111.571 24.8661 111.695 25.0521C111.819 25.2381 111.943 25.4241 111.943 25.6721C111.943 25.9201 111.881 26.1061 111.757 26.2921C111.633 26.4781 111.447 26.6021 111.199 26.6641C111.447 26.7881 111.695 26.9121 111.819 27.0981Z" fill="white"/>
<path d="M115.105 28.7102C114.733 28.5242 114.485 28.2762 114.299 27.9042C114.113 27.5942 113.989 27.1602 113.989 26.7882C113.989 26.3542 114.113 25.9822 114.299 25.6722C114.485 25.3622 114.795 25.0522 115.105 24.8662C115.477 24.6802 115.849 24.5562 116.283 24.5562C116.717 24.5562 117.089 24.6802 117.461 24.8662C117.833 25.0522 118.081 25.3002 118.267 25.6722C118.453 26.0442 118.577 26.4162 118.577 26.8502C118.577 27.2842 118.453 27.6562 118.267 28.0282C118.081 28.4002 117.771 28.6482 117.461 28.8342C117.089 29.0202 116.717 29.1442 116.283 29.1442C115.849 29.1442 115.477 28.9582 115.105 28.7102ZM117.213 28.4002C117.523 28.2142 117.709 28.0282 117.895 27.7182C118.081 27.4082 118.143 27.0982 118.143 26.7882C118.143 26.4162 118.081 26.1062 117.895 25.8582C117.709 25.5482 117.523 25.3622 117.213 25.1762C116.903 24.9902 116.593 24.9282 116.283 24.9282C115.911 24.9282 115.601 24.9902 115.353 25.1762C115.043 25.3622 114.857 25.5482 114.671 25.8582C114.485 26.1062 114.423 26.4782 114.423 26.7882C114.423 27.1602 114.485 27.4702 114.671 27.7182C114.857 27.9662 115.043 28.2142 115.353 28.4002C115.663 28.5862 115.973 28.6482 116.283 28.6482C116.655 28.5862 116.965 28.5242 117.213 28.4002Z" fill="white"/>
<path d="M124.095 27.0982C124.281 27.2842 124.343 27.5322 124.343 27.8422C124.343 28.2142 124.219 28.5242 123.909 28.7102C123.661 28.8962 123.227 29.0202 122.731 29.0202H120.809V24.6182H122.669C123.165 24.6182 123.537 24.7422 123.785 24.9282C124.033 25.1142 124.157 25.4242 124.157 25.7342C124.157 25.9822 124.095 26.1682 123.971 26.3542C123.847 26.5402 123.661 26.6642 123.413 26.7262C123.723 26.7882 123.971 26.9122 124.095 27.0982ZM121.243 26.6022H122.607C122.917 26.6022 123.227 26.5402 123.413 26.4162C123.599 26.2922 123.661 26.1062 123.661 25.7962C123.661 25.5482 123.599 25.3002 123.413 25.1762C123.227 25.0522 122.979 24.9902 122.607 24.9902H121.243V26.6022ZM123.909 27.7802C123.909 27.2222 123.537 26.9742 122.793 26.9742H121.305V28.6482H122.793C123.537 28.6482 123.909 28.3382 123.909 27.7802Z" fill="white"/>
</svg>
