<svg width="33" height="32" viewBox="0 0 33 32" fill="none" xmlns="http://www.w3.org/2000/svg">
<g clip-path="url(#clip0)">
<path d="M0.423889 15.3333C0.423889 8.10513 0.423889 4.49103 2.6694 2.24551C4.91492 0 8.52902 0 15.7572 0H17.0906C24.3188 0 27.9329 0 30.1784 2.24551C32.4239 4.49103 32.4239 8.10513 32.4239 15.3333V16.6667C32.4239 23.8949 32.4239 27.509 30.1784 29.7545C27.9329 32 24.3188 32 17.0906 32H15.7572C8.52902 32 4.91492 32 2.6694 29.7545C0.423889 27.509 0.423889 23.8949 0.423889 16.6667L0.423889 15.3333Z" fill="#2787F5"/>
<path fill-rule="evenodd" clip-rule="evenodd" d="M9.09085 10H6.75699C6.09016 10 5.95679 10.3139 5.95679 10.6599C5.95679 11.2779 6.74803 14.3432 9.64092 18.3973C11.5695 21.1659 14.2867 22.6667 16.7593 22.6667C18.2429 22.6667 18.4264 22.3333 18.4264 21.7592V19.6667C18.4264 19 18.5669 18.8669 19.0367 18.8669C19.3829 18.8669 19.9763 19.04 21.3609 20.3749C22.9434 21.9569 23.2043 22.6667 24.0943 22.6667H26.4282C27.0951 22.6667 27.4285 22.3333 27.2361 21.6755C27.0257 21.0199 26.2701 20.0687 25.2676 18.9411C24.7236 18.2984 23.9077 17.6063 23.6604 17.2601C23.3143 16.8152 23.4131 16.6174 23.6604 16.2219C23.6604 16.2219 26.5039 12.2173 26.8006 10.8577C26.9489 10.3633 26.8006 10 26.0948 10H23.7609C23.1675 10 22.8939 10.3139 22.7455 10.6599C22.7455 10.6599 21.5587 13.5521 19.8774 15.4309C19.3334 15.9747 19.0861 16.1477 18.7894 16.1477C18.6411 16.1477 18.4263 15.9747 18.4263 15.4803V10.8577C18.4263 10.2644 18.2541 10 17.7595 10H14.092C13.7212 10 13.4981 10.2753 13.4981 10.5363C13.4981 11.0987 14.3388 11.2285 14.4255 12.8105V16.2467C14.4255 17 14.2893 17.1366 13.9927 17.1366C13.2015 17.1366 11.2769 14.2314 10.1354 10.9071C9.91172 10.261 9.68732 10 9.09085 10Z" fill="white"/>
</g>
<defs>
<clipPath id="clip0">
<rect width="32" height="32" fill="white" transform="translate(0.423889)"/>
</clipPath>
</defs>
</svg>
